<?xml version="1.0" encoding="UTF-8" standalone="no"?>
<!DOCTYPE svg PUBLIC "-//W3C//DTD SVG 1.1//EN" "http://www.w3.org/Graphics/SVG/1.1/DTD/svg11.dtd">
<svg width="100%" height="100%" viewBox="0 0 3264 2448" version="1.1" xmlns="http://www.w3.org/2000/svg" xmlns:xlink="http://www.w3.org/1999/xlink" xml:space="preserve" xmlns:serif="http://www.serif.com/" style="fill-rule:evenodd;clip-rule:evenodd;stroke-linejoin:round;stroke-miterlimit:2;">
    <g id="color-alt" serif:id="color alt">
        <g transform="matrix(1,0,0,1,-420.007,-63.1741)">
            <g id="circle">
                <circle cx="1886.01" cy="1336.69" r="1096.79" style="fill:rgb(238,110,115);"/>
            </g>
        </g>
        <g id="color">
            <path d="M998.452,832.218C998.236,801.166 1255.39,594.759 1295.5,574.703C1329.62,557.642 1452.02,504.968 1487.04,522.482C1503.21,530.565 1536.68,552.398 1548.62,565.671C1659.55,688.916 1937.46,1015.55 1987.02,1072.19C2032.19,1123.81 2272.8,1414.68 2282.65,1434.39C2292.89,1454.86 2179.3,1665.44 2087.4,1763.78C1972.11,1887.15 1914.91,1938.75 1703.05,2028.07C1702.38,2028.36 1059.69,1511.8 1030.84,1454.1C1019.24,1430.9 1051.96,1329.58 1032.27,1309.88C904.912,1182.53 862.118,968.552 998.452,832.218Z" style="fill:rgb(255,241,228);"/>
            <path d="M1623.53,617.046C1612.4,615.69 1730.5,529.653 1780.2,513.086C1800.77,506.233 1999.26,699.147 2060.11,784.339C2093.07,830.488 2226.22,1001.9 2220.62,1024.31C2206.52,1080.71 2178.16,1302.92 2182.36,1315.52C2182.56,1316.12 2182.81,1317.85 2182.36,1317.4C2147.19,1282.23 2076.71,1208.09 2061.09,1161.22C2054.53,1141.55 2086.3,1046.56 2062.09,1022.36C2017.57,977.837 1831.2,702.916 1815.83,685.279C1802.87,670.414 1709.41,738.051 1708.06,737.375C1680.68,723.684 1607.4,631.938 1623.53,617.046Z" style="fill:rgb(255,241,228);"/>
            <path d="M1217.32,1426.1C1214.17,1436.7 1357.29,1364.78 1512.5,1209.28C1605.98,1115.63 1704.09,958.651 1700.12,954.68C1684,938.559 1592.65,825.34 1579.24,844.45C1549,887.533 1494.06,998.356 1395.75,1115.23C1356.49,1161.9 1145.73,1327.8 1133.89,1337.13C1114.74,1352.21 1173.65,1380.91 1217.32,1426.1Z" style="fill:rgb(255,217,184);"/>
            <path d="M1029.54,1288.43C1026.42,1288.66 1217.25,1149.9 1358.84,1004.03C1482.53,876.6 1543.91,720.796 1527.26,708.306C1360.91,583.543 1198.91,698.653 1129.88,871.231C1122.66,889.274 1109.06,926.155 1089.93,935.718C1052.41,954.481 1081.37,829.561 1003.19,830.11C766.119,831.775 789.513,945.777 789.513,945.777C789.513,945.777 707.151,892.706 591.14,1026.72C563.344,1058.83 517.172,1166.23 571.564,1242.78C588.334,1266.38 647.32,1283.48 647.32,1287.29C647.32,1305.98 544.364,1424.13 539.774,1479.22C533.715,1551.93 538.594,1623.86 569.21,1691.21C605.241,1770.48 711.402,1899.2 871.206,1874.77C1058.02,1846.21 1044.27,1684.62 1008.68,1608.37C997.624,1584.68 955.138,1530.21 949.073,1522.93C945.475,1518.61 1011.64,1437.45 1013.87,1432.3C1043.81,1362.83 1026.38,1341.66 1029.54,1288.43Z" style="fill:rgb(255,217,184);"/>
            <path d="M2201.47,1158C2166.2,1183.62 2145.11,1172.06 2130.79,1156.02C2122.32,1146.54 2124.14,1041.51 2116.74,1012.19C2109.45,983.294 2041.3,897.427 1985.34,824.158C1957.38,787.559 1856.47,685.558 1885.31,652.443C1931.72,599.173 1976.58,678.603 2053.83,782.522C2109.04,856.786 2175.72,931.199 2210.35,995.442C2226.17,1024.78 2207.07,1158 2201.47,1158Z" style="fill:rgb(140,196,229);"/>
            <path d="M1046.87,846.123C1046.84,846.299 1098.03,782.197 1127.37,753.561C1214.37,668.666 1460.53,495.942 1527.04,595.701C1540.78,616.303 1544.62,679.783 1527.04,697.366C1526.21,698.194 1515.95,687.636 1515.25,687.052C1500.49,674.752 1465.54,666.552 1446.82,660.934C1390.8,644.128 1322.99,662.468 1270.44,688.74C1161.14,743.394 1124.31,923.73 1100.37,934.427C1086.53,940.608 1041.38,867.922 1046.87,846.123Z" style="fill:rgb(140,196,229);"/>
            <path d="M1759.84,1968.16C1729.39,1974.67 1796.31,1982.75 1759.84,1968.16C1607.68,1907.29 2209.99,1649.06 2117.04,1500.09C2060.08,1408.8 1993.45,1286.86 1933.13,1226.54C1902.78,1196.19 1755.01,1011.32 1730.32,961.946C1710.96,923.235 1745.52,860.932 1781.98,848.778C1806.94,840.459 2027.13,1108.47 2049.51,1138.81C2132.17,1250.89 2286.96,1402.91 2278.3,1454.91C2272.72,1488.38 2218.78,1539.29 2200.21,1567.15C2162.71,1623.4 2083.56,1754.57 2041.64,1808.45C1988.91,1876.25 1777.62,1985.94 1759.84,1968.16Z" style="fill:rgb(140,196,229);"/>
            <path d="M1129.47,1341.44C1124.96,1350.33 1294.1,1481.74 1410.44,1608.7C1465.8,1669.12 1688.22,1874.37 1710.42,1896.56C1746.33,1932.47 1937.25,1762.41 1962.53,1732.08C1967.38,1726.26 2136.41,1541.04 2131.2,1532.77C1994.97,1316.56 1903.48,1191.16 1797.46,1065.39C1773.3,1036.72 1626.06,853.703 1595.36,838.358C1590.59,835.969 1446.82,1060.55 1409.46,1102.59C1340.68,1180.02 1244.04,1270.39 1129.47,1341.44ZM1737.49,1662.66C1755.23,1662.66 1769.63,1677.06 1769.63,1694.8C1769.63,1712.54 1755.23,1726.94 1737.49,1726.94C1719.76,1726.94 1705.35,1712.54 1705.35,1694.8C1705.35,1677.06 1719.76,1662.66 1737.49,1662.66ZM1596.76,1513.92C1612.71,1506.15 1631.96,1512.78 1639.74,1528.72C1647.51,1544.67 1640.88,1563.92 1624.93,1571.7C1608.99,1579.47 1589.74,1572.84 1581.96,1556.89C1574.19,1540.95 1580.82,1521.69 1596.76,1513.92ZM1193.3,1389.08C1185.04,1386.58 1158.53,1359.82 1162.29,1352.29C1176.88,1323.11 1245.23,1308.12 1271.9,1290.34C1336.31,1247.4 1386.27,1179.15 1440.3,1125.12C1494.62,1070.8 1518.67,1001.03 1562.62,942.431C1576.35,924.122 1580.48,888.029 1595.98,872.532C1598.66,869.857 1611.68,877.11 1613.45,878.886C1643.45,908.884 1714.73,1015.22 1699.24,975.792C1695.52,966.319 1630.19,1061.98 1618.46,1077.63C1594.96,1108.96 1560.61,1153.15 1532.44,1182.31C1401.55,1317.79 1364.09,1350.48 1233.76,1415.65C1220.95,1422.06 1198.74,1400.69 1193.3,1389.08ZM1575.34,1356.16C1604.13,1356.16 1627.51,1380.37 1627.51,1410.2C1627.51,1440.03 1604.13,1464.24 1575.34,1464.24C1546.55,1464.24 1523.17,1440.03 1523.17,1410.2C1523.17,1380.37 1546.55,1356.16 1575.34,1356.16ZM1438.79,1391.31C1456.53,1391.31 1470.93,1405.71 1470.93,1423.44C1470.93,1441.18 1456.53,1455.58 1438.79,1455.58C1421.06,1455.58 1406.65,1441.18 1406.65,1423.44C1406.65,1405.71 1421.06,1391.31 1438.79,1391.31ZM1611.63,1194.7C1629.37,1194.7 1643.77,1209.1 1643.77,1226.84C1643.77,1244.58 1629.37,1258.98 1611.63,1258.98C1593.9,1258.98 1579.5,1244.58 1579.5,1226.84C1579.5,1209.1 1593.9,1194.7 1611.63,1194.7Z"/>
        </g>
        <g id="Lineart">
            <path d="M1020.51,1438.6C1020.32,1437.05 1019.48,1435.6 1018.09,1434.67C1015.54,1432.96 1012.07,1433.64 1010.36,1436.2C1009.45,1437.57 1008.96,1439.74 1009.97,1442.92C1010.78,1445.46 1013,1450.49 1017.97,1457.18C1026.21,1468.26 1041.8,1484.16 1061.17,1503.22C1092.73,1534.27 1135.27,1572.83 1176.24,1608.89C1225.34,1652.1 1272.59,1691.17 1295.64,1709.78L1687.76,2035.2C1691.64,2038.44 1696.71,2039.89 1701.71,2039.18C1701.71,2039.18 1744.05,2033.44 1809.36,2001.1C1837.35,1987.24 1869.67,1968.41 1904.75,1942.93C1968.57,1896.56 2017.21,1858.98 2062.74,1813.69C2105.06,1771.62 2144.71,1722.91 2191.2,1654.32C2216.6,1616.68 2236.51,1582.04 2251.81,1552.12C2286.3,1484.7 2297.86,1441.04 2297.86,1441.04C2299.31,1435.71 2298.13,1430.02 2294.69,1425.7C2294.69,1425.7 2281.05,1407.38 2255.51,1377.29C2250.2,1371.03 2243.95,1364.67 2237.77,1357.33C2204.06,1317.28 2160.26,1259.89 2107.88,1195.55C2051.09,1125.8 1985.49,1046.86 1918.59,967.425C1914.22,962.245 1683.33,687.833 1589.18,583.565C1572.76,565.377 1560.74,552.156 1554.39,546.941C1552.78,545.611 1551.25,544.708 1549.81,544.166C1545.31,534.503 1517.12,540.355 1531.67,566.041C1535.73,573.223 1546.96,587.267 1562.47,606.411C1650.84,715.537 1887.52,984.782 1891.89,989.957C1967.84,1079.78 2041.6,1169.4 2103.86,1244.8C2138.14,1286.32 2169.03,1323.44 2194.42,1354.29C2202.5,1364.11 2210.42,1372.98 2216.99,1381.73C2220.48,1386.38 2223.23,1391.2 2226.38,1395.44C2242.44,1417.14 2254.94,1432.38 2261.8,1440.49C2256.76,1455.58 2244.18,1489.77 2220.26,1535.87C2205.34,1564.62 2186.08,1597.98 2161.46,1634.16C2116.54,1700.45 2078.31,1747.58 2037.43,1788.24C1993.13,1832.3 1945.74,1868.79 1883.65,1913.91C1850.48,1938.02 1819.91,1955.85 1793.44,1969C1749.97,1990.57 1717.89,1999.3 1704.12,2002.39C1673.59,1976.86 1541.65,1866.65 1435.81,1779.78C1385.7,1738.65 1341.35,1702.83 1316.58,1683.37C1291.05,1663.52 1236.91,1618.63 1181.31,1572.9C1142.81,1541.23 1103.75,1509.09 1073.6,1483.74C1063.65,1475.38 1054.68,1467.84 1046.92,1461.36C1036.55,1452.69 1028.74,1445.87 1023.95,1441.54C1022.46,1440.19 1021.35,1438.53 1020.51,1438.6ZM1531.15,562.309C1531.29,562.512 1531.33,562.693 1531.33,562.693L1531.38,562.526L1531.15,562.309Z"/>
            <path d="M1031.33,1297.08C1031.21,1297.57 1031.14,1298.12 1031.14,1298.12C1031.14,1298.12 1033.38,1298.47 1035.79,1297.43C1036.6,1297.08 1037.32,1296.38 1038.22,1295.74C1044.65,1291.13 1055.51,1283.81 1069.11,1273.65C1078.1,1266.95 1088.02,1258.8 1099.05,1250.1C1107.44,1243.5 1116.42,1236.55 1125.63,1229.08C1212.08,1159.01 1330.08,1058.78 1357.08,1027.2C1430.42,941.37 1500.38,862.53 1535.78,769.504C1559.36,707.545 1567.95,639.32 1551.99,558.476C1548.32,539.918 1538.1,525.276 1524.57,515.666C1510.58,505.736 1493.03,501.204 1475.55,503.229C1420.96,509.562 1374.29,525.252 1327.07,550.222C1270.21,580.293 1212.47,623.962 1138.34,680.923C1118.77,695.968 1083.1,729.032 1053.08,759.202C1026.69,785.724 1004.81,810.32 1000.65,819.21C998.154,824.493 1000.42,830.809 1005.7,833.307C1010.98,835.805 1017.3,833.544 1019.79,828.261C1023.64,820.219 1044.3,798.56 1068.51,774.699C1098.03,745.602 1133.08,713.739 1152.3,699.286C1225.67,644.119 1282.74,601.741 1338.85,572.769C1383.38,549.785 1427.26,535.387 1478.52,529.927C1489.34,528.773 1500.14,531.7 1508.77,537.861C1516.96,543.708 1523.18,552.541 1525.45,563.784C1540.67,638.946 1533.33,702.572 1511.44,760.252C1477.14,850.632 1408.06,926.484 1336.57,1009.63C1309.9,1040.66 1191.51,1136.79 1107.94,1207.72C1085.44,1226.82 1065.23,1243.86 1050.46,1257.91C1036.88,1270.83 1026.89,1280.29 1023.73,1285.95C1022.11,1288.86 1021.9,1290.22 1021.81,1291.15C1021.67,1292.58 1020.68,1292.99 1020.87,1293.57C1021.73,1296.15 1020.59,1298.03 1022.26,1298.53C1023.68,1298.96 1024.66,1301.83 1026.86,1300.25C1028.88,1300.07 1030.55,1298.8 1031.33,1297.08ZM1031.79,1295.44L1031.82,1295.09C1031.92,1295.5 1032.02,1295.94 1031.61,1296.32L1031.71,1295.97C1031.74,1295.79 1031.76,1295.62 1031.79,1295.44ZM1030.81,1291.66C1031.34,1292.39 1031.69,1293.26 1031.79,1294.22C1032.39,1292.92 1031.78,1292.29 1030.81,1291.66ZM1028.22,1289.7L1028.19,1289.66C1028,1289.42 1027.73,1289.42 1027.42,1289.47C1027.69,1289.53 1027.96,1289.6 1028.22,1289.7Z"/>
            <g transform="matrix(1,0,0,1,-5.20207,-12.6596)">
                <path d="M1078.87,1413.59C1085.85,1422.03 1103.22,1441.96 1123.85,1464.48C1138.69,1480.68 1155.18,1498.23 1170.89,1513.64C1211.89,1553.29 1239.92,1582.16 1277.88,1617.09C1306.66,1643.57 1341.18,1673.42 1391.05,1714.31C1413.12,1731.79 1457.89,1769.19 1507.75,1808.11C1550.47,1841.44 1597.21,1875.3 1633.68,1902.69C1656.59,1919.89 1675.55,1934.33 1687.91,1943.1C1690.35,1944.91 1693.8,1944.4 1695.6,1941.96C1697.41,1939.52 1696.9,1936.07 1694.46,1934.26C1663.75,1909.99 1590.65,1845.58 1523.35,1788.91C1474.9,1748.12 1429.31,1711.62 1407.37,1693.91C1356.97,1654.59 1322.19,1625.65 1292.88,1600.28C1254.02,1566.63 1224.86,1539.12 1182.58,1501.11C1166.33,1486.69 1149.12,1470.3 1133.78,1454.97C1112.38,1433.6 1094.54,1414.42 1087.31,1406.33C1085.31,1404 1081.79,1403.73 1079.46,1405.74C1077.13,1407.74 1076.86,1411.26 1078.87,1413.59Z"/>
            </g>
            <path d="M1607.41,764.76C1630.18,785.302 1654.54,809.872 1677.58,834.658C1719.99,880.261 1757.83,926.277 1773.9,947.433C1801.47,982.423 1846.7,1041.19 1893.25,1098.95C1909.64,1119.28 1926.3,1139.39 1942.29,1158.36C1971.58,1193.14 1998.65,1223.98 2016.67,1246.35C2034.89,1269.14 2079.82,1328.47 2122.08,1381.29C2138.8,1402.18 2154.9,1422.19 2169.2,1438.24C2172.48,1442.04 2178.22,1442.46 2182.02,1439.18C2185.81,1435.9 2186.24,1430.16 2182.96,1426.36C2165.24,1405.17 2144.2,1377.59 2124.03,1349.18C2089.07,1299.96 2056.23,1248.79 2041.5,1227.72C2020.21,1197.5 1986.67,1151.08 1948.82,1103.42C1929.71,1079.37 1909.28,1055.21 1889.62,1032.08C1854.18,990.368 1820.56,952.608 1798.5,927.175C1782.91,909.664 1749.19,874.592 1710.2,837.477C1679.85,808.587 1646.46,778.487 1615.92,754.646C1613.13,752.3 1608.95,752.66 1606.61,755.451C1604.26,758.242 1604.62,762.413 1607.41,764.76Z"/>
            <path d="M1704.93,731.774C1702.67,731.3 1700.26,732.285 1699.01,734.386C1697.45,737.03 1698.33,740.449 1700.97,742.014C1702.38,742.85 1704.87,741.567 1708.09,742.648C1711.63,743.836 1707.93,744.662 1712.46,746.202C1713.33,746.5 1714.29,745.903 1715.34,745.643C1720.05,744.481 1726.07,741.493 1733.17,738.048C1746.57,731.556 1763.56,722.545 1778.78,712.973C1790.05,705.882 1800.37,698.693 1807.97,693.189C1826.33,718.461 1867.34,774.723 1900.75,819.122C1921.47,846.664 1939.36,869.687 1947.3,878.415C1960.81,893.27 1977.06,915.266 1992.74,938.023C2016.23,972.117 2038.99,1007.58 2048.71,1024.71C2050.02,1027.02 2051.08,1029 2051.89,1030.58C2051.89,1030.58 2052.03,1085.68 2052.03,1085.68C2049.71,1101.47 2046.95,1133.19 2041.5,1152.69C2041.26,1153.54 2040.77,1154.33 2040.82,1155.16C2040.97,1157.82 2042.72,1157.83 2043.49,1160.06C2041.07,1165.76 2043.73,1172.36 2049.43,1174.78C2055.13,1177.21 2061.73,1174.55 2064.15,1168.85C2066.88,1167.59 2067.93,1167.58 2070.12,1165.01C2072.57,1162.14 2072.66,1157.47 2073.73,1153.15C2078.74,1132.85 2081,1105.03 2083.2,1090.36C2083.97,1085.2 2084.28,1074.67 2084.02,1063.43C2083.6,1045.82 2082.11,1026.35 2082.11,1026.35C2081.98,1023.9 2081.26,1021.52 2080.01,1019.42C2080.01,1019.42 2077.41,1016 2073.38,1009.76C2062.54,992.962 2040.79,956.13 2017.26,921.294C2000.95,897.158 1984.03,873.827 1969.95,858.024C1962.4,849.546 1945.5,827.138 1925.77,800.457C1881.92,741.153 1824.59,660.922 1824.59,660.922C1822.08,657.422 1818.27,655.069 1814.01,654.384C1809.76,653.699 1805.4,654.738 1801.92,657.272C1801.92,657.272 1779.14,672.788 1755.62,690.227C1738.71,702.761 1721.91,716.657 1710.7,723.528C1708.94,724.607 1707.11,725.161 1706.06,726.268C1703.65,728.8 1704.24,730.138 1704.93,731.774Z"/>
            <path d="M1610.75,614.593L1610.37,614.624C1607.31,614.875 1605.02,617.566 1605.27,620.629C1605.52,623.692 1608.22,625.975 1611.28,625.724L1611.65,625.693C1614.72,625.442 1617,622.751 1616.75,619.688C1616.5,616.625 1613.81,614.342 1610.75,614.593Z"/>
            <path d="M1603.38,615.844C1602.05,616.036 1600.79,616.711 1599.88,617.834C1597.9,618.683 1598.29,620.395 1597.75,621.093C1597.22,621.774 1597.88,622.476 1597.65,623.126C1596.71,625.741 1599.68,626.094 1601.83,628.379C1602.68,629.29 1605.13,628.762 1610.29,628.97C1611.83,629.031 1613.31,629.032 1615.39,628.585C1627.12,626.062 1646.59,615.049 1651.08,613.242C1656.12,611.139 1662.21,608.375 1668.99,604.665C1674.09,601.87 1679.47,598.401 1685.3,594.808C1702.35,584.329 1722.55,571.646 1743.02,559.074C1760.2,548.529 1777.56,538.063 1793.67,529.738C1796.31,531.888 1799.43,534.746 1802.56,537.311C1818.56,550.42 1840.79,573.658 1866.99,600.551C1895.92,630.251 1928.88,665.233 1959.54,700.475C1984.5,729.16 2008.1,757.855 2026.67,783.928L2194.96,1006.89C2198.8,1012.31 2198.69,1023.82 2198.87,1036.21C2199.19,1058.97 2196.59,1084.49 2195.84,1096.38C2193.61,1134.43 2179.62,1172 2174.74,1209.6C2172.36,1227.94 2171.97,1246.28 2175.28,1264.62L2198.61,1354.6C2198.61,1361.36 2204.09,1366.85 2210.85,1366.85C2217.61,1366.85 2223.1,1361.36 2223.1,1354.6C2224.45,1343.71 2224.6,1333.45 2223.25,1323.19C2220.48,1302.12 2212.06,1282.38 2208.57,1259.07C2206.29,1244.14 2207.24,1229.31 2209.49,1214.48C2215.31,1176.1 2229.8,1137.77 2232.7,1098.84C2233.73,1084.39 2237.39,1050.91 2236.04,1024.7C2235.16,1007.56 2231.47,993.091 2225.92,985.126L2058.85,760.94C2014.44,699.487 1943.78,622.852 1887.3,568.721C1864.03,546.417 1842.45,528.789 1827.83,515.642C1821.48,509.932 1816.6,504.847 1812.47,501.481C1806.17,496.349 1801.04,494.059 1798.46,493.299C1792.26,491.477 1787.62,492.949 1784.58,494.474C1772.89,500.323 1760.32,507.241 1747.73,515.039C1719.83,532.335 1691.42,553.169 1668.47,568.878L1638.71,589.249C1634.65,591.851 1615.8,603.176 1606.69,610.887C1605.36,612.012 1604.85,613.169 1604.01,614.107C1603.43,614.75 1603.14,615.747 1603.14,615.747L1603.38,615.844ZM1609.67,622.37L1609.55,622.89C1609.8,622.604 1609.94,622.396 1609.82,622.166L1609.73,621.972L1609.67,622.37ZM1608.13,617.402L1607.89,617.186C1608.06,617.294 1608.2,617.436 1608.31,617.6L1608.13,617.402ZM1792.96,529.159C1789.96,526.755 1787.72,525.461 1787.05,526.912C1785.39,530.513 1789.02,530.278 1792.96,529.159Z"/>
            <path d="M1270.38,939.652C1293.91,938.639 1320.44,934.959 1346.28,926.46C1371.58,918.136 1395.71,905.244 1415.74,889.768C1427.72,880.518 1438.2,870.091 1446.3,858.605C1459.77,839.506 1467.05,817.762 1466.14,794.315C1466.14,787.456 1460.58,781.888 1453.72,781.888C1446.86,781.888 1441.29,787.456 1441.29,794.315C1440.67,808.957 1435.24,821.978 1427.54,834.088C1419.88,846.136 1409.55,857.059 1397.51,867.026C1379.97,881.545 1358.86,893.581 1337.23,903.893C1313.98,914.977 1290.7,924.524 1268.99,929.667C1266.24,930.049 1264.31,932.596 1264.69,935.352C1265.07,938.107 1267.62,940.034 1270.38,939.652Z"/>
            <path d="M775.377,919.135C765.448,916.689 752.682,915.487 736.501,917.166C697.707,921.189 656.985,943.815 622.077,974.079C588.125,1003.51 559.627,1040 544.252,1072.73C527.211,1108.98 519.023,1141.57 522.296,1172.62C525.59,1203.88 540.361,1233.96 571.082,1264.75C577.391,1271.08 584.601,1276.34 592.05,1280.8C601.41,1286.4 611.157,1290.63 619.577,1294.16C610.751,1305.88 597.923,1322.2 584.571,1340.33C556.92,1377.88 527.853,1422.95 521.583,1452.95C508.875,1513.77 508.672,1563.64 520.221,1610.94C531.629,1657.66 554.63,1701.96 589.333,1751.83C641.022,1826.1 722.633,1878.5 803.403,1890.93C890.387,1904.31 976.692,1872.77 1026.59,1774.32C1039.1,1749.64 1043.65,1722.04 1042.54,1693.82C1041.03,1655.22 1028.87,1615.39 1013.69,1581.29C1012.33,1578.24 989.385,1548.68 975.724,1530.62C999.191,1505.25 1018.21,1478.16 1031.34,1448.31C1046.47,1413.95 1053.9,1375.94 1051.17,1332.55C1049.88,1312.11 1045.51,1290.97 1037.98,1271.01C1030.4,1250.91 1019.71,1232.02 1006.57,1216.01C1005.91,1215.23 997.997,1209.84 991.087,1203.92C1000.42,1201.55 1012.03,1198.4 1025.12,1194.8C1068.61,1182.85 1127.45,1164.68 1166.29,1138.29C1198.35,1116.51 1217.22,1089.61 1206.76,1057.76C1205.88,1054.81 1202.78,1053.13 1199.84,1054C1196.89,1054.87 1195.21,1057.97 1196.08,1060.92C1205.18,1095.39 1173.18,1119.39 1132.02,1137.31C1098.87,1151.75 1059.4,1161.97 1026.85,1168.25C1008.04,1171.88 991.643,1174.49 980.031,1175.51C962.874,1177.03 953.264,1180.92 952.875,1181.22C949.248,1184.34 944.224,1194.18 951.144,1207C956.316,1216.59 975.742,1237.68 977.161,1239.54C987.431,1252.72 995.387,1268.28 1001.29,1284.57C1007.23,1301 1011.02,1318.25 1012.06,1335C1014.33,1371.53 1008.15,1403.55 995.388,1432.46C982.023,1462.73 961.521,1489.6 936.288,1514.8C934.382,1516.71 925.841,1526.02 933.38,1539.21C934.132,1540.53 935.925,1543.2 938.534,1546.73C948.802,1560.64 976.229,1594.22 977.606,1597.33C988.66,1622.23 998.055,1650.57 1001.6,1678.9C1004.99,1705.89 1003.12,1732.9 991.206,1756.37C950.495,1836.54 880.33,1862.46 809.475,1851.53C738.647,1840.6 667.393,1794.18 622.069,1729.05C590.581,1683.82 569.308,1643.85 558.929,1601.48C548.633,1559.44 549.182,1515.11 560.411,1461.04C568.965,1419.63 628.834,1347.54 652.639,1315.08C659.104,1306.26 663.343,1299.6 664.804,1296.25C670.181,1283.94 664.362,1275.99 661.073,1272.75C658.131,1269.84 653.248,1266.63 646.608,1263.68C637.754,1259.76 624.165,1255.38 611.421,1247.97C606.576,1245.15 601.824,1241.89 597.699,1237.86C573.969,1214.67 561.552,1192.34 558.721,1168.54C555.734,1143.41 562.941,1117.11 576.34,1087.54C589.548,1058.41 614.265,1025.66 644.216,999.536C673.381,974.094 707.422,954.737 739.945,951.606C750.737,950.567 759.317,951.25 766.08,952.774C777.796,955.414 782.368,960.334 782.368,960.334C787.088,968.035 796.966,970.767 804.973,966.586C812.98,962.404 816.382,952.738 812.76,944.463C812.76,944.463 805.969,929.614 809.845,912.77C811.874,903.952 816.874,894.616 827.29,886.571C847.13,871.27 878.196,857.76 910.335,849.301C943.124,840.671 976.978,837.207 1000.73,841.305C1016.43,844.031 1028.33,859.143 1038.45,876.206C1060.7,913.705 1071.57,963.727 1071.57,963.727C1073.06,970.369 1078.63,975.315 1085.4,976.008C1092.17,976.701 1098.63,972.986 1101.43,966.783C1101.43,966.783 1133.49,895.68 1166.45,832.636C1184.61,797.917 1202.9,765.627 1216.11,749.934C1239.14,722.565 1260.88,704.984 1283.47,692.566C1309.85,678.066 1337.33,670.481 1368.9,662.255C1374.51,660.793 1384.98,662.547 1397.88,665.107C1413.02,668.113 1430.9,672.856 1448.56,678.656C1458.72,681.996 1468.93,685.374 1478.3,689.447C1494.47,696.475 1507.38,705.961 1517.09,712.158C1519.3,713.568 1521.65,713.75 1523.34,714.96C1528.06,720.434 1536.33,721.05 1541.8,716.336C1547.27,711.622 1547.89,703.352 1543.18,697.878C1541.54,694.661 1539.44,691.457 1536.22,688.255C1526.61,678.713 1508.47,671.85 1489.41,663.693C1479.39,659.409 1468.91,654.818 1458.2,650.899C1435.65,642.645 1412.61,636.178 1394.61,633.061C1379.95,630.522 1368.06,630.5 1361.12,632.297C1326.86,641.165 1297.14,649.619 1268.51,665.3C1242.98,679.281 1218.27,698.932 1192.21,729.793C1178.05,746.569 1158.12,780.928 1138.63,818.062C1120.56,852.499 1102.75,889.315 1090.18,915.897C1084.02,898.496 1075.54,878.166 1064.77,860.417C1049.44,835.145 1029.15,815.513 1005.72,811.682C978.696,807.239 940.371,811.509 903.019,820.962C866.567,830.188 831.06,844.355 808.155,861.058C790.112,874.196 781.55,890.034 777.683,904.884C776.413,909.76 775.692,914.551 775.377,919.135ZM976.581,1207.13C973.777,1207.71 971.653,1208.26 970.412,1209.03C969.64,1209.51 969.555,1210.22 969.875,1210.49C971.246,1211.64 972.32,1210.16 972.767,1209.73C974.126,1208.43 975.534,1207.75 976.581,1207.13ZM982.904,1195.72C983.655,1192.38 984.98,1186.39 981.952,1188.42C979.716,1189.92 980.531,1192.6 982.904,1195.72Z"/>
            <path d="M1115.28,1326.35C1111.79,1328.72 1109.28,1331.85 1107.73,1335.71C1106.61,1338.49 1103.85,1349.6 1114.54,1361.56C1137.39,1387.11 1279.2,1506.11 1396.69,1625.16C1465.04,1694.43 1679.83,1891.78 1699.9,1911.85C1707.05,1919 1717.6,1923.04 1731.6,1921.75C1743.64,1920.63 1759.72,1915.03 1777.95,1905.58C1839.29,1873.79 1930.91,1797.57 1972.13,1754.58C2023.1,1701.44 2129.15,1573.91 2147.56,1544.31C2151.34,1538.22 2152.72,1533.55 2153.06,1531.32C2153.92,1525.75 2152.59,1521.58 2151.12,1518.63C2141.65,1499.68 1988.89,1267.52 1912.9,1172.53C1844.27,1086.75 1647.69,859.616 1608,817.477C1600.08,809.079 1594.01,805.832 1592.91,805.458C1587.21,803.505 1582.73,804.397 1579.61,805.48C1574.14,807.382 1570.11,810.986 1567.69,816.471C1457.3,1066.7 1291.42,1207.04 1115.28,1326.35ZM1592.25,860.29C1651.13,925.557 1819.07,1120.13 1881.25,1197.86C1949.51,1283.18 2081.19,1481.35 2109.75,1528C2084.93,1564 1989.75,1677.64 1942.88,1726.52C1903.87,1767.19 1817.34,1839.51 1759.3,1869.59C1750.4,1874.2 1742.27,1877.78 1735.22,1879.84C1732.39,1880.67 1728.47,1881.13 1726.65,1881.32C1697.65,1853.15 1492.1,1664.15 1425.54,1596.69C1322.12,1491.88 1199.66,1387.19 1157.11,1346.86C1325.34,1230.83 1482.59,1092.94 1592.25,860.29Z"/>
            <path d="M1256.91,1336.76C1265.01,1347.06 1280.45,1367.21 1303.05,1393.33C1312.62,1404.4 1323.64,1416.38 1335.68,1429.28C1387.39,1484.7 1458.33,1556.9 1535.74,1629.66C1555.25,1648 1575.11,1666.44 1595.54,1684.25C1644.09,1726.59 1694.7,1766.42 1743.17,1802.28C1745.59,1804.19 1749.11,1803.78 1751.02,1801.37C1752.93,1798.95 1752.52,1795.44 1750.1,1793.52C1701.08,1752.18 1651.26,1704.77 1601.45,1657.76C1568.43,1626.6 1535.23,1595.86 1503.88,1565.61C1439.03,1503.04 1381.17,1443.68 1337.62,1399.51C1330.09,1391.87 1322.94,1384.75 1316.19,1378.19C1292.27,1354.99 1274.31,1338.34 1265.25,1329.33C1263.2,1327.03 1259.67,1326.83 1257.37,1328.88C1255.07,1330.93 1254.86,1334.46 1256.91,1336.76Z"/>
            <path d="M1443.17,1170.53C1446.34,1173.73 1451.4,1179.38 1458.46,1186.83C1485.1,1214.97 1537.47,1270.15 1596.98,1334.81C1618.03,1357.68 1639.96,1381.72 1662.26,1405.89C1676.77,1421.61 1691.38,1437.44 1706.04,1452.99C1742.12,1491.25 1778.07,1528.16 1808.48,1562.57C1845.08,1603.99 1874.43,1640.83 1891.06,1667.06C1892.62,1669.63 1895.97,1670.44 1898.54,1668.88C1901.1,1667.32 1901.91,1663.97 1900.35,1661.4C1885.73,1636.42 1860.2,1602.25 1828.95,1562.94C1795.1,1520.37 1755.2,1471.22 1712.57,1423.37C1705.12,1415.01 1697.47,1406.8 1689.82,1398.61C1666.44,1373.61 1642.86,1349.06 1620.02,1325.84C1555.93,1260.69 1498.54,1205.12 1468.5,1177.91C1460.38,1170.55 1454.15,1165.42 1450.47,1162.44C1448.24,1160.42 1444.79,1160.6 1442.77,1162.83C1440.76,1165.07 1440.93,1168.52 1443.17,1170.53Z"/>
            <path d="M1587.69,986.871C1610.28,1004.33 1708.97,1116.42 1807.76,1234.09C1836.57,1268.4 1865.27,1303.28 1892.66,1335.99C1912.69,1359.9 1932.54,1382.13 1949.62,1403.55C1988.73,1452.57 2016.61,1493.88 2023.76,1517.44C2024.49,1520.14 2027.27,1521.73 2029.97,1521C2032.66,1520.27 2034.26,1517.49 2033.52,1514.79C2029.1,1496.9 2013.68,1469.08 1991.78,1434.73C1971.28,1402.59 1945.93,1364.11 1915.83,1324.53C1904.84,1310.09 1893.06,1295.66 1881.05,1281.09C1854.81,1249.28 1827.11,1217.07 1799.48,1186.28C1706.27,1082.43 1615.71,993.058 1594.26,977.971C1591.81,976.157 1588.34,976.678 1586.53,979.134C1584.71,981.59 1585.23,985.057 1587.69,986.871Z"/>
        </g>
    </g>
    <g id="color-alt1" serif:id="color alt">
        <g transform="matrix(1,0,0,1,-420.007,-63.1741)">
            <g id="circle1" serif:id="circle">
                <circle cx="1886.01" cy="1336.69" r="1096.79" style="fill:rgb(238,110,115);"/>
            </g>
        </g>
        <g transform="matrix(1,0,0,1,-420.007,-63.1741)">
            <g id="circle2" serif:id="circle">
                <circle cx="1886.01" cy="1336.69" r="1096.79"/>
            </g>
        </g>
        <g id="color1" serif:id="color">
            <path d="M1129.47,1341.44C1124.96,1350.33 1294.1,1481.74 1410.44,1608.7C1465.8,1669.12 1688.22,1874.37 1710.42,1896.56C1746.33,1932.47 1937.25,1762.41 1962.53,1732.08C1967.38,1726.26 2136.41,1541.04 2131.2,1532.77C1994.97,1316.56 1903.48,1191.16 1797.46,1065.39C1773.3,1036.72 1626.06,853.703 1595.36,838.358C1590.59,835.969 1446.82,1060.55 1409.46,1102.59C1340.68,1180.02 1244.04,1270.39 1129.47,1341.44ZM1737.49,1662.66C1755.23,1662.66 1769.63,1677.06 1769.63,1694.8C1769.63,1712.54 1755.23,1726.94 1737.49,1726.94C1719.76,1726.94 1705.35,1712.54 1705.35,1694.8C1705.35,1677.06 1719.76,1662.66 1737.49,1662.66ZM1596.76,1513.92C1612.71,1506.15 1631.96,1512.78 1639.74,1528.72C1647.51,1544.67 1640.88,1563.92 1624.93,1571.7C1608.99,1579.47 1589.74,1572.84 1581.96,1556.89C1574.19,1540.95 1580.82,1521.69 1596.76,1513.92ZM1192.81,1389.58C1184.56,1387.08 1158.53,1359.82 1162.29,1352.29C1176.88,1323.11 1245.23,1308.12 1271.9,1290.34C1336.31,1247.4 1386.27,1179.15 1440.3,1125.12C1494.62,1070.8 1518.67,1001.03 1562.62,942.431C1576.35,924.122 1580.48,888.029 1595.98,872.532C1598.66,869.857 1611.68,877.11 1613.45,878.886C1643.45,908.884 1680.3,937.902 1699.24,975.792C1706.35,990.008 1631.55,1090.41 1619.81,1106.06C1596.32,1137.38 1556.76,1149.88 1532.44,1182.31C1449.61,1292.75 1410.18,1407.86 1279.85,1473.03C1267.04,1479.43 1210.46,1401.22 1201.74,1396.86L1192.81,1389.58ZM1575.34,1356.16C1604.13,1356.16 1627.51,1380.37 1627.51,1410.2C1627.51,1440.03 1604.13,1464.24 1575.34,1464.24C1546.55,1464.24 1523.17,1440.03 1523.17,1410.2C1523.17,1380.37 1546.55,1356.16 1575.34,1356.16ZM1438.79,1391.31C1456.53,1391.31 1470.93,1405.71 1470.93,1423.44C1470.93,1441.18 1456.53,1455.58 1438.79,1455.58C1421.06,1455.58 1406.65,1441.18 1406.65,1423.44C1406.65,1405.71 1421.06,1391.31 1438.79,1391.31ZM1611.63,1194.7C1629.37,1194.7 1643.77,1209.1 1643.77,1226.84C1643.77,1244.58 1629.37,1258.98 1611.63,1258.98C1593.9,1258.98 1579.5,1244.58 1579.5,1226.84C1579.5,1209.1 1593.9,1194.7 1611.63,1194.7Z" style="fill:rgb(255,241,228);"/>
        </g>
        <g id="Lineart1" serif:id="Lineart">
            <path d="M1020.51,1438.6C1020.32,1437.05 1019.48,1435.6 1018.09,1434.67C1015.54,1432.96 1012.07,1433.64 1010.36,1436.2C1009.45,1437.57 1008.96,1439.74 1009.97,1442.92C1010.78,1445.46 1013,1450.49 1017.97,1457.18C1026.21,1468.26 1041.8,1484.16 1061.17,1503.22C1092.73,1534.27 1135.27,1572.83 1176.24,1608.89C1225.34,1652.1 1272.59,1691.17 1295.64,1709.78L1687.76,2035.2C1691.64,2038.44 1696.71,2039.89 1701.71,2039.18C1701.71,2039.18 1744.05,2033.44 1809.36,2001.1C1837.35,1987.24 1869.67,1968.41 1904.75,1942.93C1968.57,1896.56 2017.21,1858.98 2062.74,1813.69C2105.06,1771.62 2144.71,1722.91 2191.2,1654.32C2216.6,1616.68 2236.51,1582.04 2251.81,1552.12C2286.3,1484.7 2297.86,1441.04 2297.86,1441.04C2299.31,1435.71 2298.13,1430.02 2294.69,1425.7C2294.69,1425.7 2281.05,1407.38 2255.51,1377.29C2250.2,1371.03 2243.95,1364.67 2237.77,1357.33C2204.06,1317.28 2160.26,1259.89 2107.88,1195.55C2051.09,1125.8 1985.49,1046.86 1918.59,967.425C1914.22,962.245 1683.33,687.833 1589.18,583.565C1572.76,565.377 1560.74,552.156 1554.39,546.941C1552.78,545.611 1551.25,544.708 1549.81,544.166C1545.31,534.503 1517.12,540.355 1531.67,566.041C1535.73,573.223 1546.96,587.267 1562.47,606.411C1650.84,715.537 1887.52,984.782 1891.89,989.957C1967.84,1079.78 2041.6,1169.4 2103.86,1244.8C2138.14,1286.32 2169.03,1323.44 2194.42,1354.29C2202.5,1364.11 2210.42,1372.98 2216.99,1381.73C2220.48,1386.38 2223.23,1391.2 2226.38,1395.44C2242.44,1417.14 2254.94,1432.38 2261.8,1440.49C2256.76,1455.58 2244.18,1489.77 2220.26,1535.87C2205.34,1564.62 2186.08,1597.98 2161.46,1634.16C2116.54,1700.45 2078.31,1747.58 2037.43,1788.24C1993.13,1832.3 1945.74,1868.79 1883.65,1913.91C1850.48,1938.02 1819.91,1955.85 1793.44,1969C1749.97,1990.57 1717.89,1999.3 1704.12,2002.39C1673.59,1976.86 1541.65,1866.65 1435.81,1779.78C1385.7,1738.65 1341.35,1702.83 1316.58,1683.37C1291.05,1663.52 1236.91,1618.63 1181.31,1572.9C1142.81,1541.23 1103.75,1509.09 1073.6,1483.74C1063.65,1475.38 1054.68,1467.84 1046.92,1461.36C1036.55,1452.69 1028.74,1445.87 1023.95,1441.54C1022.46,1440.19 1021.35,1438.53 1020.51,1438.6ZM1531.15,562.309C1531.29,562.512 1531.33,562.693 1531.33,562.693L1531.38,562.526L1531.15,562.309Z" style="fill:rgb(255,241,228);"/>
            <path d="M1031.33,1297.08C1031.21,1297.57 1031.14,1298.12 1031.14,1298.12C1031.14,1298.12 1033.38,1298.47 1035.79,1297.43C1036.6,1297.08 1037.32,1296.38 1038.22,1295.74C1044.65,1291.13 1055.51,1283.81 1069.11,1273.65C1078.1,1266.95 1088.02,1258.8 1099.05,1250.1C1107.44,1243.5 1116.42,1236.55 1125.63,1229.08C1212.08,1159.01 1330.08,1058.78 1357.08,1027.2C1430.42,941.37 1500.38,862.53 1535.78,769.504C1559.36,707.545 1567.95,639.32 1551.99,558.476C1548.32,539.918 1538.1,525.276 1524.57,515.666C1510.58,505.736 1493.03,501.204 1475.55,503.229C1420.96,509.562 1374.29,525.252 1327.07,550.222C1270.21,580.293 1212.47,623.962 1138.34,680.923C1118.77,695.968 1083.1,729.032 1053.08,759.202C1026.69,785.724 1004.81,810.32 1000.65,819.21C998.154,824.493 1000.42,830.809 1005.7,833.307C1010.98,835.805 1017.3,833.544 1019.79,828.261C1023.64,820.219 1044.3,798.56 1068.51,774.699C1098.03,745.602 1133.08,713.739 1152.3,699.286C1225.67,644.119 1282.74,601.741 1338.85,572.769C1383.38,549.785 1427.26,535.387 1478.52,529.927C1489.34,528.773 1500.14,531.7 1508.77,537.861C1516.96,543.708 1523.18,552.541 1525.45,563.784C1540.67,638.946 1533.33,702.572 1511.44,760.252C1477.14,850.632 1408.06,926.484 1336.57,1009.63C1309.9,1040.66 1191.51,1136.79 1107.94,1207.72C1085.44,1226.82 1065.23,1243.86 1050.46,1257.91C1036.88,1270.83 1026.89,1280.29 1023.73,1285.95C1022.11,1288.86 1021.9,1290.22 1021.81,1291.15C1021.67,1292.58 1020.68,1292.99 1020.87,1293.57C1021.73,1296.15 1020.59,1298.03 1022.26,1298.53C1023.68,1298.96 1024.66,1301.83 1026.86,1300.25C1028.88,1300.07 1030.55,1298.8 1031.33,1297.08ZM1031.79,1295.44L1031.82,1295.09C1031.92,1295.5 1032.02,1295.94 1031.61,1296.32L1031.71,1295.97C1031.74,1295.79 1031.76,1295.62 1031.79,1295.44ZM1030.81,1291.66C1031.34,1292.39 1031.69,1293.26 1031.79,1294.22C1032.39,1292.92 1031.78,1292.29 1030.81,1291.66ZM1028.22,1289.7L1028.19,1289.66C1028,1289.42 1027.73,1289.42 1027.42,1289.47C1027.69,1289.53 1027.96,1289.6 1028.22,1289.7Z" style="fill:rgb(255,241,228);"/>
            <g transform="matrix(1,0,0,1,-5.20207,-12.6596)">
                <path d="M1078.87,1413.59C1085.85,1422.03 1103.22,1441.96 1123.85,1464.48C1138.69,1480.68 1155.18,1498.23 1170.89,1513.64C1211.89,1553.29 1239.92,1582.16 1277.88,1617.09C1306.66,1643.57 1341.18,1673.42 1391.05,1714.31C1413.12,1731.79 1457.89,1769.19 1507.75,1808.11C1550.47,1841.44 1597.21,1875.3 1633.68,1902.69C1656.59,1919.89 1675.55,1934.33 1687.91,1943.1C1690.35,1944.91 1693.8,1944.4 1695.6,1941.96C1697.41,1939.52 1696.9,1936.07 1694.46,1934.26C1663.75,1909.99 1590.65,1845.58 1523.35,1788.91C1474.9,1748.12 1429.31,1711.62 1407.37,1693.91C1356.97,1654.59 1322.19,1625.65 1292.88,1600.28C1254.02,1566.63 1224.86,1539.12 1182.58,1501.11C1166.33,1486.69 1149.12,1470.3 1133.78,1454.97C1112.38,1433.6 1094.54,1414.42 1087.31,1406.33C1085.31,1404 1081.79,1403.73 1079.46,1405.74C1077.13,1407.74 1076.86,1411.26 1078.87,1413.59Z" style="fill:rgb(255,241,228);"/>
            </g>
            <path d="M1607.41,764.76C1630.18,785.302 1654.54,809.872 1677.58,834.658C1719.99,880.261 1757.83,926.277 1773.9,947.433C1801.47,982.423 1846.7,1041.19 1893.25,1098.95C1909.64,1119.28 1926.3,1139.39 1942.29,1158.36C1971.58,1193.14 1998.65,1223.98 2016.67,1246.35C2034.89,1269.14 2079.82,1328.47 2122.08,1381.29C2138.8,1402.18 2154.9,1422.19 2169.2,1438.24C2172.48,1442.04 2178.22,1442.46 2182.02,1439.18C2185.81,1435.9 2186.24,1430.16 2182.96,1426.36C2165.24,1405.17 2144.2,1377.59 2124.03,1349.18C2089.07,1299.96 2056.23,1248.79 2041.5,1227.72C2020.21,1197.5 1986.67,1151.08 1948.82,1103.42C1929.71,1079.37 1909.28,1055.21 1889.62,1032.08C1854.18,990.368 1820.56,952.608 1798.5,927.175C1782.91,909.664 1749.19,874.592 1710.2,837.477C1679.85,808.587 1646.46,778.487 1615.92,754.646C1613.13,752.3 1608.95,752.66 1606.61,755.451C1604.26,758.242 1604.62,762.413 1607.41,764.76Z" style="fill:rgb(255,241,228);"/>
            <path d="M1704.93,731.774C1702.67,731.3 1700.26,732.285 1699.01,734.386C1697.45,737.03 1698.33,740.449 1700.97,742.014C1702.38,742.85 1704.87,741.567 1708.09,742.648C1711.63,743.836 1707.93,744.662 1712.46,746.202C1713.33,746.5 1714.29,745.903 1715.34,745.643C1720.05,744.481 1726.07,741.493 1733.17,738.048C1746.57,731.556 1763.56,722.545 1778.78,712.973C1790.05,705.882 1800.37,698.693 1807.97,693.189C1826.33,718.461 1867.34,774.723 1900.75,819.122C1921.47,846.664 1939.36,869.687 1947.3,878.415C1960.81,893.27 1977.06,915.266 1992.74,938.023C2016.23,972.117 2038.99,1007.58 2048.71,1024.71C2050.02,1027.02 2051.08,1029 2051.89,1030.58C2051.89,1030.58 2052.03,1085.68 2052.03,1085.68C2049.71,1101.47 2046.95,1133.19 2041.5,1152.69C2041.26,1153.54 2040.77,1154.33 2040.82,1155.16C2040.97,1157.82 2042.72,1157.83 2043.49,1160.06C2041.07,1165.76 2043.73,1172.36 2049.43,1174.78C2055.13,1177.21 2061.73,1174.55 2064.15,1168.85C2066.88,1167.59 2067.93,1167.58 2070.12,1165.01C2072.57,1162.14 2072.66,1157.47 2073.73,1153.15C2078.74,1132.85 2081,1105.03 2083.2,1090.36C2083.97,1085.2 2084.28,1074.67 2084.02,1063.43C2083.6,1045.82 2082.11,1026.35 2082.11,1026.35C2081.98,1023.9 2081.26,1021.52 2080.01,1019.42C2080.01,1019.42 2077.41,1016 2073.38,1009.76C2062.54,992.962 2040.79,956.13 2017.26,921.294C2000.95,897.158 1984.03,873.827 1969.95,858.024C1962.4,849.546 1945.5,827.138 1925.77,800.457C1881.92,741.153 1824.59,660.922 1824.59,660.922C1822.08,657.422 1818.27,655.069 1814.01,654.384C1809.76,653.699 1805.4,654.738 1801.92,657.272C1801.92,657.272 1779.14,672.788 1755.62,690.227C1738.71,702.761 1721.91,716.657 1710.7,723.528C1708.94,724.607 1707.11,725.161 1706.06,726.268C1703.65,728.8 1704.24,730.138 1704.93,731.774Z" style="fill:rgb(255,241,228);"/>
            <path d="M1610.75,614.593L1610.37,614.624C1607.31,614.875 1605.02,617.566 1605.27,620.629C1605.52,623.692 1608.22,625.975 1611.28,625.724L1611.65,625.693C1614.72,625.442 1617,622.751 1616.75,619.688C1616.5,616.625 1613.81,614.342 1610.75,614.593Z" style="fill:rgb(255,241,228);"/>
            <path d="M1603.38,615.844C1602.05,616.036 1600.79,616.711 1599.88,617.834C1597.9,618.683 1598.29,620.395 1597.75,621.093C1597.22,621.774 1597.88,622.476 1597.65,623.126C1596.71,625.741 1599.68,626.094 1601.83,628.379C1602.68,629.29 1605.13,628.762 1610.29,628.97C1611.83,629.031 1613.31,629.032 1615.39,628.585C1627.12,626.062 1646.59,615.049 1651.08,613.242C1656.12,611.139 1662.21,608.375 1668.99,604.665C1674.09,601.87 1679.47,598.401 1685.3,594.808C1702.35,584.329 1722.55,571.646 1743.02,559.074C1760.2,548.529 1777.56,538.063 1793.67,529.738C1796.31,531.888 1799.43,534.746 1802.56,537.311C1818.56,550.42 1840.79,573.658 1866.99,600.551C1895.92,630.251 1928.88,665.233 1959.54,700.475C1984.5,729.16 2008.1,757.855 2026.67,783.928L2194.96,1006.89C2198.8,1012.31 2198.69,1023.82 2198.87,1036.21C2199.19,1058.97 2196.59,1084.49 2195.84,1096.38C2193.61,1134.43 2179.62,1172 2174.74,1209.6C2172.36,1227.94 2171.97,1246.28 2175.28,1264.62L2198.61,1354.6C2198.61,1361.36 2204.09,1366.85 2210.85,1366.85C2217.61,1366.85 2223.1,1361.36 2223.1,1354.6C2224.45,1343.71 2224.6,1333.45 2223.25,1323.19C2220.48,1302.12 2212.06,1282.38 2208.57,1259.07C2206.29,1244.14 2207.24,1229.31 2209.49,1214.48C2215.31,1176.1 2229.8,1137.77 2232.7,1098.84C2233.73,1084.39 2237.39,1050.91 2236.04,1024.7C2235.16,1007.56 2231.47,993.091 2225.92,985.126L2058.85,760.94C2014.44,699.487 1943.78,622.852 1887.3,568.721C1864.03,546.417 1842.45,528.789 1827.83,515.642C1821.48,509.932 1816.6,504.847 1812.47,501.481C1806.17,496.349 1801.04,494.059 1798.46,493.299C1792.26,491.477 1787.62,492.949 1784.58,494.474C1772.89,500.323 1760.32,507.241 1747.73,515.039C1719.83,532.335 1691.42,553.169 1668.47,568.878L1638.71,589.249C1634.65,591.851 1615.8,603.176 1606.69,610.887C1605.36,612.012 1604.85,613.169 1604.01,614.107C1603.43,614.75 1603.14,615.747 1603.14,615.747L1603.38,615.844ZM1609.67,622.37L1609.55,622.89C1609.8,622.604 1609.94,622.396 1609.82,622.166L1609.73,621.972L1609.67,622.37ZM1608.13,617.402L1607.89,617.186C1608.06,617.294 1608.2,617.436 1608.31,617.6L1608.13,617.402ZM1792.96,529.159C1789.96,526.755 1787.72,525.461 1787.05,526.912C1785.39,530.513 1789.02,530.278 1792.96,529.159Z" style="fill:rgb(255,241,228);"/>
            <path d="M1270.38,939.652C1293.91,938.639 1320.44,934.959 1346.28,926.46C1371.58,918.136 1395.71,905.244 1415.74,889.768C1427.72,880.518 1438.2,870.091 1446.3,858.605C1459.77,839.506 1467.05,817.762 1466.14,794.315C1466.14,787.456 1460.58,781.888 1453.72,781.888C1446.86,781.888 1441.29,787.456 1441.29,794.315C1440.67,808.957 1435.24,821.978 1427.54,834.088C1419.88,846.136 1409.55,857.059 1397.51,867.026C1379.97,881.545 1358.86,893.581 1337.23,903.893C1313.98,914.977 1290.7,924.524 1268.99,929.667C1266.24,930.049 1264.31,932.596 1264.69,935.352C1265.07,938.107 1267.62,940.034 1270.38,939.652Z" style="fill:rgb(255,241,228);"/>
            <path d="M775.377,919.135C765.448,916.689 752.682,915.487 736.501,917.166C697.707,921.189 656.985,943.815 622.077,974.079C588.125,1003.51 559.627,1040 544.252,1072.73C527.211,1108.98 519.023,1141.57 522.296,1172.62C525.59,1203.88 540.361,1233.96 571.082,1264.75C577.391,1271.08 584.601,1276.34 592.05,1280.8C601.41,1286.4 611.157,1290.63 619.577,1294.16C610.751,1305.88 597.923,1322.2 584.571,1340.33C556.92,1377.88 527.853,1422.95 521.583,1452.95C508.875,1513.77 508.672,1563.64 520.221,1610.94C531.629,1657.66 554.63,1701.96 589.333,1751.83C641.022,1826.1 722.633,1878.5 803.403,1890.93C890.387,1904.31 976.692,1872.77 1026.59,1774.32C1039.1,1749.64 1043.65,1722.04 1042.54,1693.82C1041.03,1655.22 1028.87,1615.39 1013.69,1581.29C1012.33,1578.24 989.385,1548.68 975.724,1530.62C999.191,1505.25 1018.21,1478.16 1031.34,1448.31C1046.47,1413.95 1053.9,1375.94 1051.17,1332.55C1049.88,1312.11 1045.51,1290.97 1037.98,1271.01C1030.4,1250.91 1019.71,1232.02 1006.57,1216.01C1005.91,1215.23 997.997,1209.84 991.087,1203.92C1000.42,1201.55 1012.03,1198.4 1025.12,1194.8C1068.61,1182.85 1127.45,1164.68 1166.29,1138.29C1198.35,1116.51 1217.22,1089.61 1206.76,1057.76C1205.88,1054.81 1202.78,1053.13 1199.84,1054C1196.89,1054.87 1195.21,1057.97 1196.08,1060.92C1205.18,1095.39 1173.18,1119.39 1132.02,1137.31C1098.87,1151.75 1059.4,1161.97 1026.85,1168.25C1008.04,1171.88 991.643,1174.49 980.031,1175.51C962.874,1177.03 953.264,1180.92 952.875,1181.22C949.248,1184.34 944.224,1194.18 951.144,1207C956.316,1216.59 975.742,1237.68 977.161,1239.54C987.431,1252.72 995.387,1268.28 1001.29,1284.57C1007.23,1301 1011.02,1318.25 1012.06,1335C1014.33,1371.53 1008.15,1403.55 995.388,1432.46C982.023,1462.73 961.521,1489.6 936.288,1514.8C934.382,1516.71 925.841,1526.02 933.38,1539.21C934.132,1540.53 935.925,1543.2 938.534,1546.73C948.802,1560.64 976.229,1594.22 977.606,1597.33C988.66,1622.23 998.055,1650.57 1001.6,1678.9C1004.99,1705.89 1003.12,1732.9 991.206,1756.37C950.495,1836.54 880.33,1862.46 809.475,1851.53C738.647,1840.6 667.393,1794.18 622.069,1729.05C590.581,1683.82 569.308,1643.85 558.929,1601.48C548.633,1559.44 549.182,1515.11 560.411,1461.04C568.965,1419.63 628.834,1347.54 652.639,1315.08C659.104,1306.26 663.343,1299.6 664.804,1296.25C670.181,1283.94 664.362,1275.99 661.073,1272.75C658.131,1269.84 653.248,1266.63 646.608,1263.68C637.754,1259.76 624.165,1255.38 611.421,1247.97C606.576,1245.15 601.824,1241.89 597.699,1237.86C573.969,1214.67 561.552,1192.34 558.721,1168.54C555.734,1143.41 562.941,1117.11 576.34,1087.54C589.548,1058.41 614.265,1025.66 644.216,999.536C673.381,974.094 707.422,954.737 739.945,951.606C750.737,950.567 759.317,951.25 766.08,952.774C777.796,955.414 782.368,960.334 782.368,960.334C787.088,968.035 796.966,970.767 804.973,966.586C812.98,962.404 816.382,952.738 812.76,944.463C812.76,944.463 805.969,929.614 809.845,912.77C811.874,903.952 816.874,894.616 827.29,886.571C847.13,871.27 878.196,857.76 910.335,849.301C943.124,840.671 976.978,837.207 1000.73,841.305C1016.43,844.031 1028.33,859.143 1038.45,876.206C1060.7,913.705 1071.57,963.727 1071.57,963.727C1073.06,970.369 1078.63,975.315 1085.4,976.008C1092.17,976.701 1098.63,972.986 1101.43,966.783C1101.43,966.783 1133.49,895.68 1166.45,832.636C1184.61,797.917 1202.9,765.627 1216.11,749.934C1239.14,722.565 1260.88,704.984 1283.47,692.566C1309.85,678.066 1337.33,670.481 1368.9,662.255C1374.51,660.793 1384.98,662.547 1397.88,665.107C1413.02,668.113 1430.9,672.856 1448.56,678.656C1458.72,681.996 1468.93,685.374 1478.3,689.447C1494.47,696.475 1507.38,705.961 1517.09,712.158C1519.3,713.568 1521.65,713.75 1523.34,714.96C1528.06,720.434 1536.33,721.05 1541.8,716.336C1547.27,711.622 1547.89,703.352 1543.18,697.878C1541.54,694.661 1539.44,691.457 1536.22,688.255C1526.61,678.713 1508.47,671.85 1489.41,663.693C1479.39,659.409 1468.91,654.818 1458.2,650.899C1435.65,642.645 1412.61,636.178 1394.61,633.061C1379.95,630.522 1368.06,630.5 1361.12,632.297C1326.86,641.165 1297.14,649.619 1268.51,665.3C1242.98,679.281 1218.27,698.932 1192.21,729.793C1178.05,746.569 1158.12,780.928 1138.63,818.062C1120.56,852.499 1102.75,889.315 1090.18,915.897C1084.02,898.496 1075.54,878.166 1064.77,860.417C1049.44,835.145 1029.15,815.513 1005.72,811.682C978.696,807.239 940.371,811.509 903.019,820.962C866.567,830.188 831.06,844.355 808.155,861.058C790.112,874.196 781.55,890.034 777.683,904.884C776.413,909.76 775.692,914.551 775.377,919.135ZM976.581,1207.13C973.777,1207.71 971.653,1208.26 970.412,1209.03C969.64,1209.51 969.555,1210.22 969.875,1210.49C971.246,1211.64 972.32,1210.16 972.767,1209.73C974.126,1208.43 975.534,1207.75 976.581,1207.13ZM982.904,1195.72C983.655,1192.38 984.98,1186.39 981.952,1188.42C979.716,1189.92 980.531,1192.6 982.904,1195.72Z" style="fill:rgb(255,241,228);"/>
            <path d="M1115.28,1326.35C1111.79,1328.72 1109.28,1331.85 1107.73,1335.71C1106.61,1338.49 1103.85,1349.6 1114.54,1361.56C1137.39,1387.11 1279.2,1506.11 1396.69,1625.16C1465.04,1694.43 1679.83,1891.78 1699.9,1911.85C1707.05,1919 1717.6,1923.04 1731.6,1921.75C1743.64,1920.63 1759.72,1915.03 1777.95,1905.58C1839.29,1873.79 1930.91,1797.57 1972.13,1754.58C2023.1,1701.44 2129.15,1573.91 2147.56,1544.31C2151.34,1538.22 2152.72,1533.55 2153.06,1531.32C2153.92,1525.75 2152.59,1521.58 2151.12,1518.63C2141.65,1499.68 1988.89,1267.52 1912.9,1172.53C1844.27,1086.75 1647.69,859.616 1608,817.477C1600.08,809.079 1594.01,805.832 1592.91,805.458C1587.21,803.505 1582.73,804.397 1579.61,805.48C1574.14,807.382 1570.11,810.986 1567.69,816.471C1457.3,1066.7 1291.42,1207.04 1115.28,1326.35ZM1592.25,860.29C1651.13,925.557 1819.07,1120.13 1881.25,1197.86C1949.51,1283.18 2081.19,1481.35 2109.75,1528C2084.93,1564 1989.75,1677.64 1942.88,1726.52C1903.87,1767.19 1817.34,1839.51 1759.3,1869.59C1750.4,1874.2 1742.27,1877.78 1735.22,1879.84C1732.39,1880.67 1728.47,1881.13 1726.65,1881.32C1697.65,1853.15 1492.1,1664.15 1425.54,1596.69C1322.12,1491.88 1199.66,1387.19 1157.11,1346.86C1325.34,1230.83 1482.59,1092.94 1592.25,860.29Z" style="fill:rgb(255,241,228);"/>
            <path d="M1256.91,1336.76C1265.01,1347.06 1280.45,1367.21 1303.05,1393.33C1312.62,1404.4 1323.64,1416.38 1335.68,1429.28C1387.39,1484.7 1458.33,1556.9 1535.74,1629.66C1555.25,1648 1575.11,1666.44 1595.54,1684.25C1644.09,1726.59 1694.7,1766.42 1743.17,1802.28C1745.59,1804.19 1749.11,1803.78 1751.02,1801.37C1752.93,1798.95 1752.52,1795.44 1750.1,1793.52C1701.08,1752.18 1651.26,1704.77 1601.45,1657.76C1568.43,1626.6 1535.23,1595.86 1503.88,1565.61C1439.03,1503.04 1381.17,1443.68 1337.62,1399.51C1330.09,1391.87 1322.94,1384.75 1316.19,1378.19C1292.27,1354.99 1274.31,1338.34 1265.25,1329.33C1263.2,1327.03 1259.67,1326.83 1257.37,1328.88C1255.07,1330.93 1254.86,1334.46 1256.91,1336.76Z" style="fill:rgb(255,241,228);"/>
            <path d="M1443.17,1170.53C1446.34,1173.73 1451.4,1179.38 1458.46,1186.83C1485.1,1214.97 1537.47,1270.15 1596.98,1334.81C1618.03,1357.68 1639.96,1381.72 1662.26,1405.89C1676.77,1421.61 1691.38,1437.44 1706.04,1452.99C1742.12,1491.25 1778.07,1528.16 1808.48,1562.57C1845.08,1603.99 1874.43,1640.83 1891.06,1667.06C1892.62,1669.63 1895.97,1670.44 1898.54,1668.88C1901.1,1667.32 1901.91,1663.97 1900.35,1661.4C1885.73,1636.42 1860.2,1602.25 1828.95,1562.94C1795.1,1520.37 1755.2,1471.22 1712.57,1423.37C1705.12,1415.01 1697.47,1406.8 1689.82,1398.61C1666.44,1373.61 1642.86,1349.06 1620.02,1325.84C1555.93,1260.69 1498.54,1205.12 1468.5,1177.91C1460.38,1170.55 1454.15,1165.42 1450.47,1162.44C1448.24,1160.42 1444.79,1160.6 1442.77,1162.83C1440.76,1165.07 1440.93,1168.52 1443.17,1170.53Z" style="fill:rgb(255,241,228);"/>
            <path d="M1587.69,986.871C1610.28,1004.33 1708.97,1116.42 1807.76,1234.09C1836.57,1268.4 1865.27,1303.28 1892.66,1335.99C1912.69,1359.9 1932.54,1382.13 1949.62,1403.55C1988.73,1452.57 2016.61,1493.88 2023.76,1517.44C2024.49,1520.14 2027.27,1521.73 2029.97,1521C2032.66,1520.27 2034.26,1517.49 2033.52,1514.79C2029.1,1496.9 2013.68,1469.08 1991.78,1434.73C1971.28,1402.59 1945.93,1364.11 1915.83,1324.53C1904.84,1310.09 1893.06,1295.66 1881.05,1281.09C1854.81,1249.28 1827.11,1217.07 1799.48,1186.28C1706.27,1082.43 1615.71,993.058 1594.26,977.971C1591.81,976.157 1588.34,976.678 1586.53,979.134C1584.71,981.59 1585.23,985.057 1587.69,986.871Z" style="fill:rgb(255,241,228);"/>
        </g>
    </g>
</svg>
